# xmcd
#
# Track frame offsets:
#	182
#	22667
#	39507
#	57175
#	76892
#	93940
#	113170
#	131180
#	144640
#	162965
#	190957
#
# Disc length: 2898 seconds
#
# Revision: 6
# Processed by: cddbd v1.5.2PL0 Copyright (c) Steve Scherf et al.
# Submitted via: audiograbber 1.83.01
#
DISCID=890b500b
DTITLE=Jordan, Louis - The Blues Collection 28 -- Louis Jordan - Caldonia
DYEAR=1995
DGENRE=Blues
TTITLE0=Louis Jordan - Caldonia
TTITLE1=Louis Jordan - Hard Head
TTITLE2=Louis Jordan - Saturday Night Fish Fry
TTITLE3=Louis Jordan - I Believe In Music
TTITLE4=Louis Jordan - Every Knock Is A Boost
TTITLE5=Louis Jordan - Red Top
TTITLE6=Louis Jordan - Take The 'A' Train
TTITLE7=Louis Jordan - Groovin' In Paris
TTITLE8=Louis Jordan - Something For Fred
TTITLE9=Louis Jordan - I'm Gonna Move To The Outskirts Of Town
TTITLE10=Louis Jordan - Something For Louis
EXTD=
EXTT0=
EXTT1=
EXTT2=
EXTT3=
EXTT4=
EXTT5=
EXTT6=
EXTT7=
EXTT8=
EXTT9=
EXTT10=
PLAYORDER=
